<svg xmlns="http://www.w3.org/2000/svg" xmlns:xlink="http://www.w3.org/1999/xlink" width="230" zoomAndPan="magnify" viewBox="0 0 172.5 43.499998" height="58" preserveAspectRatio="xMidYMid meet" version="1.0"><defs><g/><clipPath id="018709b854"><path d="M 32.449219 7 L 81 7 L 81 41.980469 L 32.449219 41.980469 Z M 32.449219 7 " clip-rule="nonzero"/></clipPath><clipPath id="6926290603"><path d="M 37 10 L 80 10 L 80 41.980469 L 37 41.980469 Z M 37 10 " clip-rule="nonzero"/></clipPath><clipPath id="e48488050b"><path d="M 73 1.199219 L 103.632812 1.199219 L 103.632812 12 L 73 12 Z M 73 1.199219 " clip-rule="nonzero"/></clipPath></defs><g clip-path="url(#018709b854)"><path fill="#0078b6" d="M 37.519531 29.871094 C 36.296875 31.402344 35.324219 34.160156 36.101562 36.433594 C 36.585938 37.851562 37.808594 38.839844 39.421875 39.539062 C 40.742188 40.53125 42.742188 41.363281 45.652344 41.695312 C 36.257812 41.539062 33.148438 37.851562 32.839844 35.230469 C 32.449219 31.871094 34.296875 28.628906 37.5 25.597656 C 44.199219 19.289062 56.894531 13.949219 67.886719 10.667969 C 72.601562 9.25 77.03125 8.222656 80.503906 7.636719 C 75.980469 9.035156 71.847656 10.453125 68.058594 11.890625 C 50.894531 18.433594 41.304688 25.113281 37.519531 29.871094 Z M 37.519531 29.871094 " fill-opacity="1" fill-rule="nonzero"/></g><g clip-path="url(#6926290603)"><path fill="#01193c" d="M 41.421875 31.34375 C 40.351562 32.761719 39.558594 35.304688 40.292969 37.324219 C 41.1875 39.714844 44.46875 40.722656 47.984375 41.074219 C 52.023438 41.226562 55.535156 40.839844 55.535156 40.839844 C 54.683594 40.996094 53.847656 41.113281 53.03125 41.226562 C 50.234375 41.597656 47.789062 41.753906 45.671875 41.714844 C 42.742188 41.382812 40.742188 40.546875 39.441406 39.558594 C 38.101562 38.550781 37.480469 37.363281 37.324219 36.335938 C 36.898438 33.304688 38.46875 30.316406 41.304688 27.480469 C 47.226562 21.578125 58.625 16.414062 68.507812 13.152344 C 72.757812 11.734375 76.738281 10.6875 79.863281 10.085938 C 75.789062 11.464844 72.078125 12.863281 68.679688 14.257812 C 53.246094 20.609375 44.722656 26.917969 41.421875 31.34375 Z M 41.421875 31.34375 " fill-opacity="1" fill-rule="nonzero"/></g><g clip-path="url(#e48488050b)"><path fill="#0078b6" d="M 103.222656 3.132812 C 102.851562 2.804688 102.039062 2.28125 100.40625 2.125 C 99.359375 2.027344 98.308594 2.144531 97.300781 2.414062 L 90.503906 4.261719 L 78.332031 1.25 L 74.972656 2.28125 L 84.195312 6.046875 L 78.914062 7.949219 L 76.039062 6.996094 L 74.488281 7.386719 L 76.429688 8.976562 C 76.429688 8.976562 72.992188 10.355469 73.671875 11.367188 C 74.488281 12.550781 99.785156 4.609375 103.144531 3.5625 C 103.320312 3.484375 103.378906 3.25 103.222656 3.132812 Z M 103.222656 3.132812 " fill-opacity="1" fill-rule="nonzero"/></g><g fill="#0078b6" fill-opacity="1"><g transform="translate(52.290498, 33.058017)"><g><path d="M 9.015625 -9.390625 L 5.5 -9.390625 L 5.5 0 L 3.640625 0 L 3.640625 -9.390625 L 0.140625 -9.390625 L 0.140625 -11.0625 L 9.015625 -11.0625 Z M 9.015625 -9.390625 "/></g></g></g><g fill="#0078b6" fill-opacity="1"><g transform="translate(61.178114, 33.058017)"><g><path d="M 8.46875 0 L 6.453125 -3.359375 C 6.347656 -3.347656 6.179688 -3.34375 5.953125 -3.34375 L 3.328125 -3.34375 L 3.328125 0 L 1.453125 0 L 1.453125 -11.0625 L 5.953125 -11.0625 C 7.359375 -11.0625 8.453125 -10.734375 9.234375 -10.078125 C 10.015625 -9.421875 10.40625 -8.492188 10.40625 -7.296875 C 10.40625 -6.410156 10.207031 -5.660156 9.8125 -5.046875 C 9.414062 -4.429688 8.847656 -3.984375 8.109375 -3.703125 L 10.59375 0 Z M 3.328125 -5.015625 L 5.953125 -5.015625 C 7.742188 -5.015625 8.640625 -5.753906 8.640625 -7.234375 C 8.640625 -8.671875 7.742188 -9.390625 5.953125 -9.390625 L 3.328125 -9.390625 Z M 3.328125 -5.015625 "/></g></g></g><g fill="#0078b6" fill-opacity="1"><g transform="translate(72.343011, 33.058017)"><g><path d="M 8.609375 -2.5 L 3.015625 -2.5 L 1.953125 0 L 0.015625 0 L 4.90625 -11.0625 L 6.8125 -11.0625 L 11.65625 0 L 9.65625 0 Z M 7.890625 -4.15625 L 5.796875 -9.078125 L 3.71875 -4.15625 Z M 7.890625 -4.15625 "/></g></g></g><g fill="#0078b6" fill-opacity="1"><g transform="translate(83.745116, 33.058017)"><g><path d="M 6.390625 0 L 4.453125 0 L 0.046875 -11.0625 L 2.0625 -11.0625 L 5.46875 -2.078125 L 8.921875 -11.0625 L 10.859375 -11.0625 Z M 6.390625 0 "/></g></g></g><g fill="#0078b6" fill-opacity="1"><g transform="translate(94.388131, 33.058017)"><g><path d="M 9.359375 -9.390625 L 3.328125 -9.390625 L 3.328125 -6.40625 L 8.734375 -6.40625 L 8.734375 -4.734375 L 3.328125 -4.734375 L 3.328125 -1.671875 L 9.546875 -1.671875 L 9.546875 0 L 1.453125 0 L 1.453125 -11.0625 L 9.359375 -11.0625 Z M 9.359375 -9.390625 "/></g></g></g><g fill="#0078b6" fill-opacity="1"><g transform="translate(104.493453, 33.058017)"><g><path d="M 8.46875 0 L 6.453125 -3.359375 C 6.347656 -3.347656 6.179688 -3.34375 5.953125 -3.34375 L 3.328125 -3.34375 L 3.328125 0 L 1.453125 0 L 1.453125 -11.0625 L 5.953125 -11.0625 C 7.359375 -11.0625 8.453125 -10.734375 9.234375 -10.078125 C 10.015625 -9.421875 10.40625 -8.492188 10.40625 -7.296875 C 10.40625 -6.410156 10.207031 -5.660156 9.8125 -5.046875 C 9.414062 -4.429688 8.847656 -3.984375 8.109375 -3.703125 L 10.59375 0 Z M 3.328125 -5.015625 L 5.953125 -5.015625 C 7.742188 -5.015625 8.640625 -5.753906 8.640625 -7.234375 C 8.640625 -8.671875 7.742188 -9.390625 5.953125 -9.390625 L 3.328125 -9.390625 Z M 3.328125 -5.015625 "/></g></g></g><g fill="#0078b6" fill-opacity="1"><g transform="translate(115.65835, 33.058017)"><g><path d="M 5.09375 -11.140625 C 6.519531 -11.140625 7.8125 -10.765625 8.96875 -10.015625 L 8.1875 -8.359375 C 7.0625 -9.046875 5.984375 -9.390625 4.953125 -9.390625 C 4.390625 -9.390625 3.945312 -9.289062 3.625 -9.09375 C 3.300781 -8.894531 3.140625 -8.609375 3.140625 -8.234375 C 3.140625 -7.867188 3.285156 -7.554688 3.578125 -7.296875 C 3.878906 -7.035156 4.25 -6.84375 4.6875 -6.71875 C 5.132812 -6.601562 5.613281 -6.453125 6.125 -6.265625 C 6.644531 -6.085938 7.125 -5.894531 7.5625 -5.6875 C 8.007812 -5.476562 8.378906 -5.15625 8.671875 -4.71875 C 8.960938 -4.28125 9.109375 -3.75 9.109375 -3.125 C 9.109375 -2.15625 8.71875 -1.378906 7.9375 -0.796875 C 7.164062 -0.222656 6.164062 0.0625 4.9375 0.0625 C 4.09375 0.0625 3.273438 -0.09375 2.484375 -0.40625 C 1.691406 -0.726562 1 -1.15625 0.40625 -1.6875 L 1.21875 -3.3125 C 1.78125 -2.789062 2.394531 -2.390625 3.0625 -2.109375 C 3.726562 -1.828125 4.363281 -1.6875 4.96875 -1.6875 C 5.625 -1.6875 6.128906 -1.804688 6.484375 -2.046875 C 6.847656 -2.285156 7.03125 -2.613281 7.03125 -3.03125 C 7.03125 -3.414062 6.882812 -3.734375 6.59375 -3.984375 C 6.300781 -4.242188 5.929688 -4.4375 5.484375 -4.5625 C 5.046875 -4.6875 4.566406 -4.832031 4.046875 -5 C 3.523438 -5.175781 3.039062 -5.359375 2.59375 -5.546875 C 2.15625 -5.742188 1.789062 -6.054688 1.5 -6.484375 C 1.207031 -6.921875 1.0625 -7.445312 1.0625 -8.0625 C 1.0625 -9 1.425781 -9.742188 2.15625 -10.296875 C 2.894531 -10.859375 3.875 -11.140625 5.09375 -11.140625 Z M 5.09375 -11.140625 "/></g></g></g><g fill="#0078b6" fill-opacity="1"><g transform="translate(125.225987, 33.058017)"><g><path d="M 9.359375 -9.390625 L 3.328125 -9.390625 L 3.328125 -6.40625 L 8.734375 -6.40625 L 8.734375 -4.734375 L 3.328125 -4.734375 L 3.328125 -1.671875 L 9.546875 -1.671875 L 9.546875 0 L 1.453125 0 L 1.453125 -11.0625 L 9.359375 -11.0625 Z M 9.359375 -9.390625 "/></g></g></g></svg>