<svg xmlns="http://www.w3.org/2000/svg" width="4375" height="3258" viewBox="0 0 4375 3258">
  <defs>
    <style>
      .cls-1 {
        fill-rule: evenodd;
      }
    </style>
  </defs>
  <path id="Color_Fill_1" data-name="Color Fill 1" class="cls-1" d="M799,296c49.128-.742,98.009,5.037,142,13,56.308,10.193,112.07,12.844,165,24,135.64,28.591,265.63,44.346,405,68,35.06,5.951,113.13,9.118,150,3l132-5,133-7,74-2c51.29-.007,100.85-0.506,146,8,499.52,94.106,855.91,327.261,998,777,19.95,63.15,29.82,126.97,42,200,10.38,62.24-12.6,133.77-29,173-58.63,140.27-180.93,230.26-310,300-148.66,80.32-333.53,115.27-509,170-127.78,39.86-247.95,81.76-350,146-57.78,36.37-108.69,81.09-161,123l-62,59a492.036,492.036,0,0,0-72,72c-28.05,34.85-63.72,63.83-92,99q-55.995,60.99-112,122c-24.59,30.56-55.62,55.72-80,86a583.756,583.756,0,0,1-85,85l-57,54c-41.51,33.18-81.85,65.91-126,97-89.44,62.97-184.921,116.21-307,147-36.113,9.11-100.091,23.87-148,16-30.872-5.07-60.371-4.68-89-11-90.339-19.93-168.312-44.84-234-88-60.319-39.63-111.125-86.06-151-146-83.938-126.18-100.312-299.6-37-462,76.115-195.24,188.753-350.82,251-558,10.268-34.17,13.479-70.65,20-109,7.974-46.9-1.591-101.13-9-139l-21-134c-41.939-179.56-116-311.2-161-489-21.041-83.144-38.414-204.713-17-302,8.7-39.535,20.3-75.573,35-109,24.718-56.2,68.157-107.29,114-143,70.8-55.15,160.091-97.77,261-122Z"/>
</svg>
