<?xml version="1.0" encoding="utf-8"?>
<!-- Generator: Adobe Illustrator 24.0.0, SVG Export Plug-In . SVG Version: 6.00 Build 0)  -->
<svg version="1.1" id="Layer_1" xmlns="http://www.w3.org/2000/svg" xmlns:xlink="http://www.w3.org/1999/xlink" x="0px" y="0px"
	 viewBox="0 0 1417 880" style="enable-background:new 0 0 1417 880;" xml:space="preserve">
<style type="text/css">
	.st0{fill:#F8F8FB;}
	.st1{fill:#83C5E8;}
	.st2{fill:none;stroke:#0078B6;stroke-width:5;stroke-dasharray:27;}
	.st3{fill:none;}
	.st4{fill:none;stroke:#0078B6;stroke-width:4;}
	.st5{fill:none;stroke:#0078B6;stroke-width:3;}
	.st6{fill:#0078B6;}
</style>
<ellipse class="st0" cx="983.01" cy="325.46" rx="249" ry="248.5"/>
<path class="st1" d="M272,392.4c28.35,85.24,16.05,127.57-4.6,169.4c-35.47-29.4-66.93-80.52-73.1-162.89
	c-8.98-119.81,34.38-288.32,176-309.18c69.36-6.33,168.5,43.17,268.58,79.46c-40.25,0.53-80.4,3.5-120.71-1.38
	c-81.37-9.86-154.67-46.11-236.72,7.4C216.11,221.85,235.01,315.14,272,392.4z"/>
<path class="st1" d="M815.03,538.21c-19.38,104.96-77.39,272.61-249.05,232.1c-12.86-2.19-33.18-14.95-56.99-32.78
	c120.82-133.19,154.62-161.6,252.47-184.24C779.44,549.13,797.55,544.16,815.03,538.21z"/>
<path class="st2" d="M271.98,140.81c-112.19,89.75-50.22,186.99-14.96,326.96c18.23,72.38-148.52,214.77-29.92,336.58
	s275.67-3.2,378.25-129.29c107.92-149.59,333.37-45.95,364.36-276.74c4.27-119.67-153.36-304.48-432.42-260.61
	C332.73,78.2,271.98,140.81,271.98,140.81z"/>
<g transform="translate(1464 897)">
	<ellipse class="st3" cx="-749.99" cy="-189.54" rx="50" ry="49.5"/>
	<ellipse class="st4" cx="-749.99" cy="-189.54" rx="48" ry="47.5"/>
</g>
<line class="st5" x1="596.5" y1="752" x2="596.5" y2="802"/>
<line class="st5" x1="536.5" y1="74" x2="536.5" y2="124"/>
<line class="st5" x1="622" y1="777.5" x2="572" y2="777.5"/>
<line class="st5" x1="562" y1="99.5" x2="512" y2="99.5"/>
<circle class="st6" cx="817.01" cy="636.96" r="15"/>
<circle class="st6" cx="625.01" cy="98.96" r="15"/>
</svg>
