<svg xmlns="http://www.w3.org/2000/svg" width="2923" height="2543" viewBox="0 0 2923 2543">
  <defs>
    <style>
      .cls-1 {
        fill-rule: evenodd;
      }
    </style>
  </defs>
  <path id="Color_Fill_1" data-name="Color Fill 1" class="cls-1" d="M1316,257c241.8-3.741,336,233.882,426,388,34.62,59.286,54.88,133.4,107,175,107.25,85.605,283.6,99.645,429,147,49.57,16.143,95.12,40.29,136,66,142.19,89.42,252.51,232.3,308,408,11.12,35.22,16.76,72.9,24,112,16.03,86.5.94,191.73-20,260-57.01,185.87-151.08,321.7-303,412-50.29,29.89-109.75,50.83-173,67-38.29,9.79-78.96,10.95-121,18-27.92,4.68-68.72,5.67-97,1q-27-1.005-54-2c-36.71-6.12-75.01-7.52-109-15-115.38-25.41-217.13-49.65-316-89-88.97-35.41-169.1-79.5-263-109-71.14-22.35-150.82-35-243-35H987q-46,2.505-92,5c-66.221,10.65-156.923,9.45-218-4-159.315-35.1-270.868-133.45-352-247a561.8,561.8,0,0,1-69-129c-48.612-128.63,5-259.17,59-340,81.118-121.42,199.583-212.92,318-297,85.822-60.938,173.288-110.945,234-197,96.564-136.872,111.9-359.1,216-489,36.11-45.062,93.7-74.3,156-93l54-11Z"/>
</svg>
